<ttFont>
<head>
    <!-- Most of this table will be recalculated by the compiler -->
    <tableVersion value="1.0"/>
    <fontRevision value="1.0"/>
    <checkSumAdjustment value="0xc2c6611d"/>
    <magicNumber value="0x5f0f3cf5"/>
    <flags value="00000000 00000011"/>
    <unitsPerEm value="1000"/>
    <created value="Sat Dec 14 21:21:24 2019"/>
    <modified value="Sat Dec 14 21:21:24 2019"/>
    <xMin value="0"/>
    <yMin value="-200"/>
    <xMax value="604"/>
    <yMax value="800"/>
    <macStyle value="00000000 00000000"/>
    <lowestRecPPEM value="3"/>
    <fontDirectionHint value="2"/>
    <indexToLocFormat value="0"/>
    <glyphDataFormat value="0"/>
  </head>
          <CharString index="0">
            138 478 rmoveto
            17 3 16 21 2 hvcurveto
            -2 hlineto
            -10 -4 -8 -4 -14 hhcurveto
            -21 -12 23 20 17 10 25 23 12 8 -4 -8 6 hvcurveto
            2 hlineto
            2 10 rlineto
            11 -83 hlineto
            -20 -11 -13 -27 -11 -10 0 4 -9 vhcurveto
            13 vlineto
            -5 9 10 -2 14 hhcurveto
            99 108 rmoveto
            8 -12 -10 hlineto
            -4 -5 0 -2 -3 hvcurveto
            -4 -3 -2 -4 -2 -5 rrcurveto
            -2 -4 -2 -4 -6 vvcurveto
            -43 -12 81 10 vlineto
            2 -15 4 7 2 4 4 2 rlinecurve
            2 5 5 2 6 hhcurveto
            57 -85 rmoveto
            -11 -11 4 7 -6 hvcurveto
            -8 9 -2 10 13 vvcurveto
            12 2 11 6 9 vhcurveto
            6 6 11 4 11 hhcurveto
            10 8 -2 -8 4 hvcurveto
            7 -7 5 -9 -10 vvcurveto
            -8 -58 vlineto
            -9 4 -7 5 -5 vhcurveto
            -4 4 7 -5 8 4 4 3 2 -99 callsubr
            -4 -5 -2 -4 hhcurveto
            -2 -4 -4 0 -6 hhcurveto
            87 hmoveto
            -14 -8 4 7 -8 hvcurveto
            -9 8 -2 11 13 vvcurveto
            12 4 11 7 9 vhcurveto
            7 5 9 3 12 hhcurveto
            10 8 -2 -8 6 hvcurveto
            6 -8 3 -8 -10 vvcurveto
            -8 -55 vlineto
            -9 2 -8 4 -4 vhcurveto
            -4 4 6 -5 10 4 4 3 4 -99 callsubr
            -7 -4 -2 -2 hhcurveto
            -2 -4 -6 0 -4 hhcurveto
            105 2 rmoveto
            53 vlineto
            7 1 4 -5 5 vhcurveto
            2 -2 -4 2 -6 hhcurveto
            -10 -6 -2 -5 -4 hvcurveto
            -5 -6 -1 -7 -10 vvcurveto
            -43 -13 81 11 vlineto
            2 -10 rlineto
            2 hlineto
            2 4 2 4 6 2 rrcurveto
            1 4 5 1 7 hhcurveto
            8 8 -2 -4 4 hvcurveto
            7 -7 2 -6 -11 vvcurveto
            -53 vlineto
            -366 9 rmoveto
            9 6 3 4 4 hvcurveto
            4 6 0 4 15 vvcurveto
            16 -1 16 -22 -15 -6 -19 -13 -11 3 -6 3 -6 vhcurveto
            -4 2 6 -5 7 hhcurveto
            157 64 rmoveto
            -6 -7 -2 -5 -2 hvcurveto
            -5 -4 -2 -7 -2 -6 rrcurveto
            42 hlineto
            8 -2 5 -2 4 vhcurveto
            5 -4 -4 2 -6 hhcurveto
            85 hmoveto
            -8 -3 -2 -5 -5 hvcurveto
            -4 -4 -2 -7 -6 vvcurveto
            42 hlineto
            8 -2 5 -4 4 vhcurveto
            5 -2 -6 2 -6 hhcurveto
            return
          </CharString>
          <CharString index="1">
            142 423 rmoveto
            11 8 -4 -6 6 hvcurveto
            7 -9 2 -8 -15 vvcurveto
            -12 -2 -11 -7 -8 vhcurveto
            -6 -6 -8 -4 -11 hhcurveto
            -4 -6 2 2 -4 hvcurveto
            -4 2 -2 2 -5 4 rrcurveto
            -6 -2 0 -4 -2 hhcurveto
            -8 114 12 -46 hlineto
            9 7 8 4 10 hhcurveto
            69 -81 rmoveto
            -14 114 14 hlineto
            38 -33 rmoveto
            -52 vlineto
            -6 0 -7 4 -2 vhcurveto
            -4 2 4 -2 6 hhcurveto
            9 6 4 4 4 hvcurveto
            4 5 2 8 8 vvcurveto
            44 13 -81 -11 vlineto
            -2 10 -4 -4 -2 -2 -4 -2 rlinecurve
            -2 -4 -7 -2 -6 hhcurveto
            -8 -9 2 6 -4 hvcurveto
            -4 4 -4 6 11 vvcurveto
            54 vlineto
            129 -83 rmoveto
            -12 -11 4 6 -6 hvcurveto
            -6 8 -5 11 12 vvcurveto
            13 5 10 6 9 vhcurveto
            6 6 8 4 11 hhcurveto
            10 9 -2 -6 6 hvcurveto
            6 -9 2 -8 -10 vvcurveto
            -9 -54 vlineto
            -8 2 -8 -98 callsubr
            7 -2 8 hhcurveto
            12 hlineto
            5 2 4 0 4 2 rrcurveto
            -10 vlineto
            -2 -4 -4 -2 -5 hhcurveto
            -2 -4 -4 0 -4 hhcurveto
            -223 73 rmoveto
            -8 -6 -3 -4 -2 hvcurveto
            -4 -6 -3 -6 -13 vvcurveto
            -10 3 -8 -98 callsubr
            4 -4 8 hhcurveto
            9 4 4 4 4 hvcurveto
            4 7 2 8 8 vvcurveto
            11 -2 8 -4 4 vhcurveto
            6 -4 -4 3 -9 hhcurveto
            219 hmoveto
            -6 -5 -3 -4 -4 hvcurveto
            -4 -4 -2 -4 -8 vvcurveto
            40 hlineto
            8 0 4 -5 4 vhcurveto
            4 -4 -4 3 -6 hhcurveto
            return
          </CharString>
          <CharString index="2">
            rmoveto
            -6 -7 -3 -5 -4 hvcurveto
            -4 -6 -3 -6 -8 vvcurveto
            -10 3 -7 -98 callsubr
            5 -3 8 hhcurveto
            6 5 1 2 6 hvcurveto
            -8 vlineto
            -3 -3 -2 -2 -3 -3 -1 -4 hhcurveto
            -11 -7 4 5 -5 hvcurveto
            -7 7 -2 8 13 vvcurveto
            6 1 7 3 5 vhcurveto
            2 6 4 4 6 3 rrcurveto
            2 5 6 2 6 hhcurveto
            9 5 -2 -2 5 hvcurveto
            -2 -7 rlineto
            3 -6 -5 1 -6 hhcurveto
            92 -28 rmoveto
            -11 -2 -10 -7 -7 vhcurveto
            -5 -5 -9 -4 -9 hhcurveto
            -11 -7 4 5 -6 hvcurveto
            -6 7 -3 10 11 vvcurveto
            10 3 10 6 5 vhcurveto
            7 6 7 3 11 hhcurveto
            11 7 -3 -7 5 hvcurveto
            7 -5 2 -10 -10 vvcurveto
            15 -36 rmoveto
            71 10 -63 30 -8 vlineto
            20 29 rmoveto
            -29 -8 71 19 vlineto
            8 7 -3 -3 4 hvcurveto
            4 -4 2 -4 -7 vvcurveto
            -9 -5 -5 -10 -5 vhcurveto
            19 -31 rlineto
            -9 hlineto
            -18 29 rlineto
            -143 7 rmoveto
            -10 1 -7 -98 callsubr
            6 -3 8 hhcurveto
            8 5 3 4 5 hvcurveto
            2 5 3 7 10 vvcurveto
            9 -3 7 -2 4 vhcurveto
            5 -5 -5 3 -8 hhcurveto
            -8 -6 -3 -5 -4 hvcurveto
            -4 -4 -1 -7 -9 vvcurveto
            130 1 rmoveto
            11 hlineto
            5 4 1 2 3 hvcurveto
            3 2 1 3 5 vvcurveto
            4 -1 3 -3 3 vhcurveto
            1 -3 -4 2 -5 hhcurveto
            -11 hlineto
            endchar
          </CharString>
          <CharString index="3">
            291 625 rmoveto
            -22 -10 16 27 24 10 20 22 13 9 -5 -8 5 hvcurveto
            -1 13 rlineto
            33 16 -120 -11 vlineto
            -2 13 rlineto
            -3 hlineto
            -9 -4 -9 -4 -13 hhcurveto
            -142 87 rmoveto
            4 2 0 -2 5 hvcurveto
            -3 -11 rlineto
            -8 hlineto
            -13 -14 -12 -16 hvcurveto
            -46 -13 85 11 vlineto
            2 -15 rlineto
            10 7 5 7 15 hhcurveto
            61 -87 rmoveto
            -28 -3 -13 19 27 vvcurveto
            25 15 19 22 22 13 -16 -23 vhcurveto
            -6 -60 vlineto
            -22 5 7 -9 17 hhcurveto
            10 8 2 4 8 hvcurveto
            -13 vlineto
            -10 -5 4 3 -20 -2 rrcurveto
            -4 76 rmoveto
            -12 -11 -9 -15 hvcurveto
            42 hlineto
            15 -6 9 -13 vhcurveto
            87 -65 rmoveto
            9 6 2 4 5 hvcurveto
            4 3 0 6 17 vvcurveto
            11 1 9 -5 5 vhcurveto
            4 -4 -7 4 -9 hhcurveto
            -12 -10 -14 -19 -18 8 -14 14 hvcurveto
            return
          </CharString>
          <CharString index="4">
            rmoveto
            32 32 17 40 37 -27 14 -24 4 hvcurveto
            31 3 10 28 16 vvcurveto
            33 -25 20 -38 -5 -28 -1 1 -40 vhcurveto
            -212 vlineto
            67 128 rmoveto
            -33 55 30 hlineto
            11 28 -4 -23 -21 -16 -7 -20 hvcurveto
            7 -98 rmoveto
            -40 64 26 hlineto
            22 31 -5 -26 -25 -16 -8 -23 hvcurveto
            return
          </CharString>
          <CharString index="5">
            rmoveto
            -37 -13 -24 -37 -38 14 -21 36 12 11 0 6 15 hvcurveto
            -17 vlineto
            -13 -7 -1 4 -27 -3 rrcurveto
            -46 -5 -21 37 47 vvcurveto
            41 24 34 49 14 15 -3 -5 12 vhcurveto
            -9 -18 rlineto
            6 -12 -11 3 -12 hhcurveto
            87 -70 rmoveto
            -64 -17 148 84 -17 -67 -52 61 -15 vlineto
            50 hmoveto
            -64 -20 148 84 -17 -64 -52 61 -15 vlineto
            endchar
          </CharString>
          <CharString index="6">
            rmoveto
            21 -62 rlineto
            35 hlineto
            -66 196 rlineto
            -35 hlineto
            -66 -196 rlineto
            35 hlineto
            21 62 rlineto
            46 25 rmoveto
            -37 hlineto
            19 56 rlineto
            return
          </CharString>
          <CharString index="7">
            2 -152 50 15 52 255 90 hstem
            242 32 84 24 vstem
            return
          </CharString>
          <CharString index="8">
            hhcurveto
            4 4 2 2 7 hvcurveto
            -12 vlineto
            -2 return
          </CharString>
          <CharString index="9">
            4 -5 vhcurveto
            -4 4 return
          </CharString>
        <CharString name=".notdef">
          -107 -200 69 33 47 33 23 33 47 33 60 33 24 56 22 34 23 33 37 33 27 34 36 34 26 33 37 33 67 hstem
          93 74 33 33 34 33 33 77 vstem
          410 -200 rmoveto
          1000 -317 -1000 vlineto
          75 933 rmoveto
          165 -33 -66 -37 66 -33 -166 33 66 37 -65 hlineto
          -1 -96 rmoveto
          100 -70 66 -34 -166 hlineto
          66 34 rmoveto
          36 -33 -36 vlineto
          -33 -61 rmoveto
          166 -33 -66 -70 -100 33 66 37 -66 hlineto
          133 -27 rmoveto
          33 -100 -166 34 133 hlineto
          -67 -56 rmoveto
          100 -113 -166 113 33 -80 100 47 -33 -23 -34 hlineto
          -66 -117 rmoveto
          166 -113 -166 hlineto
          133 33 rmoveto
          47 -100 -47 vlineto
          -33 -56 rmoveto
          166 -33 -32 hlineto
          -70 -47 rlineto
          102 -33 -166 33 hlineto
          70 47 rlineto
          -70 hlineto
          endchar
        </CharString>
        <CharString name="A">
          -100 callsubr
          403 220 rmoveto
          74 -220 rlineto
          127 hlineto
          -236 700 rlineto
          -127 hlineto
          -236 -700 rlineto
          127 hlineto
          74 220 rlineto
          166 90 rmoveto
          -135 hlineto
          68 202 rlineto
          -101 -544 -102 callsubr
        </CharString>
        <CharString name="A.layer0">
          -100 callsubr
          -104 callsubr
          -182 -553 -101 callsubr
          142 -214 -105 callsubr
        </CharString>
        <CharString name="A.layer1">
          -100 callsubr
          -107 callsubr
          -66 -493 -101 callsubr
          endchar
        </CharString>
        <CharString name="A.layer2">
          -100 callsubr
          -106 callsubr
          142 -330 -101 callsubr
          endchar
        </CharString>
        <CharString name="B">
          344 hmoveto
          107 105 56 131 122 -87 47 -82 13 hvcurveto
          102 12 34 91 55 vvcurveto
          109 -83 64 -125 -15 -93 -2 2 -133 vhcurveto
          -700 vlineto
          -1 105 96 1 69 hhcurveto
          -48 424 rmoveto
          -110 182 100 hlineto
          34 96 -13 -76 -70 -55 -23 -65 hvcurveto
          22 -324 rmoveto
          -132 210 85 hlineto
          74 101 -15 -88 -81 -53 -26 -75 hvcurveto
          -114 -132 -102 callsubr
        </CharString>
        <CharString name="B.layer0">
          -104 callsubr
          -169 -637 -103 callsubr
          90 -79 -105 callsubr
        </CharString>
        <CharString name="B.layer1">
          -107 callsubr
          -73 -577 -103 callsubr
          endchar
        </CharString>
        <CharString name="B.layer2">
          -106 callsubr
          116 -414 -103 callsubr
          endchar
        </CharString>
        <CharString name="space">
          endchar
        </CharString>
</ttFont>
